<?xml version="1.0" encoding="utf-8"?>
<!-- Generator: Adobe Illustrator 19.0.0, SVG Export Plug-In . SVG Version: 6.00 Build 0)  -->
<svg version="1.1" id="Layer_1" xmlns="http://www.w3.org/2000/svg" xmlns:xlink="http://www.w3.org/1999/xlink" x="0px" y="0px"
	 viewBox="-300 392 10 10" style="enable-background:new -300 392 10 10;" xml:space="preserve">
<style type="text/css">
	.st0{opacity:0.3;fill:#FFFFFF;}
	.st1{fill:#FFFFFF;}
</style>
<g>
	<path class="st0" d="M-290.6,396.5h-4v-4c0-0.2-0.2-0.5-0.5-0.5s-0.5,0.2-0.5,0.5v4h-4c-0.2,0-0.5,0.2-0.5,0.5s0.2,0.5,0.5,0.5h4v4
		c0,0.2,0.2,0.5,0.5,0.5s0.5-0.2,0.5-0.5v-4h4c0.2,0,0.5-0.2,0.5-0.5S-290.3,396.5-290.6,396.5z"/>
	<path class="st1" d="M-298,399.8h-1.5c-0.2,0-0.5-0.2-0.5-0.5s0.2-0.5,0.5-0.5h1.5c1.2,0,1.8-1,2.5-2.1c0.7-1.1,1.5-2.4,3.1-2.4
		h1.8c0.2,0,0.5,0.2,0.5,0.5s-0.2,0.5-0.5,0.5h-1.8c-1.1,0-1.6,0.9-2.3,2C-295.4,398.5-296.2,399.8-298,399.8z"/>
</g>
</svg>
