<?xml version="1.0" encoding="utf-8"?>
<!-- Generator: Adobe Illustrator 19.0.0, SVG Export Plug-In . SVG Version: 6.00 Build 0)  -->
<svg version="1.1" id="Layer_1" xmlns="http://www.w3.org/2000/svg" xmlns:xlink="http://www.w3.org/1999/xlink" x="0px" y="0px"
	 viewBox="0 0 10 10" style="enable-background:new 0 0 10 10;" xml:space="preserve">
<style type="text/css">
	.st0{opacity:0.6;fill:#FFFFFF;}
	.st1{opacity:0.95;fill:#FFFFFF;}
</style>
<g id="XMLID_887_">
	<path id="XMLID_895_" class="st0" d="M7.7,2.9H2.3C2.2,2.9,2,2.8,2,2.6c0-0.2,0.1-0.3,0.3-0.3h5.4C7.8,2.3,8,2.5,8,2.6
		C8,2.8,7.8,2.9,7.7,2.9z"/>
	<path id="XMLID_894_" class="st0" d="M7.7,7.7H2.3C2.2,7.7,2,7.5,2,7.4c0-0.2,0.1-0.3,0.3-0.3h5.4C7.8,7.1,8,7.2,8,7.4
		C8,7.5,7.8,7.7,7.7,7.7z"/>
	<path id="XMLID_893_" class="st0" d="M7.7,7.7c-0.1,0-0.1,0-0.2-0.1L2.1,2.8C2,2.7,2,2.5,2.1,2.4c0.1-0.1,0.3-0.1,0.4,0l5.4,4.8
		C8,7.3,8,7.5,7.9,7.6C7.8,7.6,7.8,7.7,7.7,7.7z"/>
	<path id="XMLID_892_" class="st0" d="M2.3,7.7c-0.1,0-0.2,0-0.2-0.1C2,7.5,2,7.3,2.1,7.2l5.4-4.8c0.1-0.1,0.3-0.1,0.4,0
		C8,2.5,8,2.7,7.9,2.8L2.5,7.6C2.5,7.6,2.4,7.7,2.3,7.7z"/>
	<circle id="XMLID_891_" class="st1" cx="7.7" cy="2.6" r="1.4"/>
	<circle id="XMLID_890_" class="st1" cx="7.7" cy="7.4" r="1.4"/>
	<circle id="XMLID_889_" class="st1" cx="2.3" cy="2.6" r="1.4"/>
	<circle id="XMLID_888_" class="st1" cx="2.3" cy="7.4" r="1.4"/>
</g>
</svg>
