<?xml version="1.0" encoding="utf-8"?>
<!-- Generator: Adobe Illustrator 19.0.0, SVG Export Plug-In . SVG Version: 6.00 Build 0)  -->
<svg version="1.1" id="Layer_1" xmlns="http://www.w3.org/2000/svg" xmlns:xlink="http://www.w3.org/1999/xlink" x="0px" y="0px"
	 viewBox="0 0 10 10" style="enable-background:new 0 0 10 10;" xml:space="preserve">
<style type="text/css">
	.st0{opacity:0.95;fill:#FFFFFF;}
	.st1{opacity:0.6;fill:#FFFFFF;}
</style>
<g id="XMLID_138_">
	<path id="XMLID_205_" class="st0" d="M3.8,3c0.7-0.4,1.7-0.4,2.4,0l1.6-1.6c-1.6-1.3-3.9-1.3-5.6,0L3.8,3z"/>
	<path id="XMLID_204_" class="st0" d="M8.6,2.2L7,3.8c0.4,0.7,0.4,1.7,0,2.4l1.6,1.6C8.5,7.9,8.4,8.1,8.2,8.2C9.9,6.6,10,4,8.6,2.2z
		"/>
	<path id="XMLID_148_" class="st0" d="M3,6.2L3,6.2C2.5,5.4,2.5,4.5,3,3.8L1.4,2.2C0,4,0.1,6.6,1.8,8.2C1.6,8.1,1.5,7.9,1.4,7.8
		L3,6.2z"/>
	<path id="XMLID_146_" class="st0" d="M6.2,7C5.5,7.5,4.5,7.5,3.8,7L2.2,8.6C2.1,8.5,1.9,8.4,1.8,8.2c1.8,1.8,4.7,1.8,6.5,0
		C8.1,8.4,7.9,8.5,7.8,8.6L6.2,7z"/>
	<path id="XMLID_140_" class="st1" d="M8.2,1.7C6.5,0,3.6,0,1.8,1.7S0,6.4,1.8,8.2s4.7,1.8,6.5,0S10,3.5,8.2,1.7z M3.3,6.7
		c-0.9-0.9-0.9-2.4,0-3.3s2.4-0.9,3.3,0s0.9,2.4,0,3.3S4.3,7.6,3.3,6.7z"/>
</g>
</svg>
