<?xml version="1.0" encoding="utf-8"?>
<!-- Generator: Adobe Illustrator 19.0.0, SVG Export Plug-In . SVG Version: 6.00 Build 0)  -->
<svg version="1.1" id="Layer_1" xmlns="http://www.w3.org/2000/svg" xmlns:xlink="http://www.w3.org/1999/xlink" x="0px" y="0px"
	 viewBox="0 0 10 10" style="enable-background:new 0 0 10 10;" xml:space="preserve">
<style type="text/css">
	.st0{opacity:0.3;fill:#FFFFFF;}
	.st1{fill:#FFFFFF;}
</style>
<g>
	<path id="XMLID_876_" class="st0" d="M7.7,7.7c-1.5,1.5-3.9,1.5-5.3,0c-1.5-1.5-1.5-3.9,0-5.3c1.5-1.5,3.9-1.5,5.3,0
		C9.1,3.9,9.1,6.2,7.7,7.7z"/>
	<path id="XMLID_873_" class="st1" d="M8.3,1.8C6.5,0,3.5,0,1.7,1.8c-1.8,1.8-1.8,4.7,0,6.5c1.8,1.8,4.7,1.8,6.5,0
		C10.1,6.5,10.1,3.6,8.3,1.8z M7.7,7.7c-1.5,1.5-3.9,1.5-5.3,0c-1.5-1.5-1.5-3.9,0-5.3c1.5-1.5,3.9-1.5,5.3,0
		C9.1,3.9,9.1,6.2,7.7,7.7z"/>
	<path id="XMLID_872_" class="st1" d="M7.1,7.3c-0.1,0-0.2,0-0.3-0.1L4.5,5.4V2.2C4.5,2,4.7,1.8,5,1.8S5.4,2,5.4,2.2v2.7l2,1.5
		c0.2,0.1,0.2,0.4,0.1,0.6C7.4,7.2,7.2,7.3,7.1,7.3z"/>
</g>
</svg>
