<?xml version="1.0" encoding="utf-8"?>
<!-- Generator: Adobe Illustrator 19.0.0, SVG Export Plug-In . SVG Version: 6.00 Build 0)  -->
<svg version="1.1" id="Layer_1" xmlns="http://www.w3.org/2000/svg" xmlns:xlink="http://www.w3.org/1999/xlink" x="0px" y="0px"
	 viewBox="-300 392 10 10" style="enable-background:new -300 392 10 10;" xml:space="preserve">
<style type="text/css">
	.st0{fill:#FFFFFF;}
</style>
<path id="XMLID_744_" class="st0" d="M-290.2,397.9l-3.5-2.2c-0.2-0.1-0.5,0-0.5,0.3v1.4c-0.2,0-0.5,0-0.8,0c-0.3,0-0.7-0.1-1.1-0.2
	c-0.4-0.1-0.8-0.3-1.2-0.5c-0.7-0.4-1.3-1.2-1.5-1.8c-0.1-0.3-0.2-0.6-0.2-0.8c0-0.2,0-0.3,0-0.3l0-0.1c0-0.2-0.2-0.4-0.5-0.4
	c-0.3,0-0.5,0.2-0.5,0.5c0,0,0,0.1,0,0.4c0,0.2,0,0.6,0.1,1c0.1,0.4,0.3,0.9,0.6,1.4c0.2,0.2,0.3,0.5,0.5,0.7
	c0.2,0.2,0.4,0.4,0.6,0.6c0.5,0.3,1,0.6,1.5,0.8c0.5,0.2,1,0.3,1.4,0.4c0.4,0.1,0.8,0.1,1,0.1c0,0,0,0,0.1,0v1.4
	c0,0.3,0.3,0.4,0.5,0.3l3.5-2.2C-289.9,398.3-289.9,398-290.2,397.9z"/>
</svg>
