<?xml version="1.0" encoding="utf-8"?>
<!-- Generator: Adobe Illustrator 19.0.0, SVG Export Plug-In . SVG Version: 6.00 Build 0)  -->
<svg version="1.1" id="Layer_1" xmlns="http://www.w3.org/2000/svg" xmlns:xlink="http://www.w3.org/1999/xlink" x="0px" y="0px"
	 viewBox="0 0 50 50" style="enable-background:new 0 0 50 50;" xml:space="preserve">
<style type="text/css">
	.st0{fill:#FFFFFF;}
</style>
<g id="XMLID_2_">
	<path id="XMLID_13_" class="st0" d="M38.5,11.5H11.5c-1,0-1.9,0.8-1.9,1.9v28.7c0,2.8,2.3,5.1,5.1,5.1h20.6c2.8,0,5.1-2.3,5.1-5.1
		V13.4C40.3,12.3,39.5,11.5,38.5,11.5z M16.8,40.4c0,0.7-0.5,1.2-1.2,1.2c-0.7,0-1.2-0.5-1.2-1.2V18.3c0-0.7,0.5-1.2,1.2-1.2
		c0.7,0,1.2,0.5,1.2,1.2V40.4z M26.2,40.4c0,0.7-0.5,1.2-1.2,1.2s-1.2-0.5-1.2-1.2V18.3c0-0.7,0.5-1.2,1.2-1.2s1.2,0.5,1.2,1.2V40.4
		z M35.7,40.4c0,0.7-0.5,1.2-1.2,1.2s-1.2-0.5-1.2-1.2V18.3c0-0.7,0.5-1.2,1.2-1.2s1.2,0.5,1.2,1.2V40.4z"/>
	<path id="XMLID_12_" class="st0" d="M38.5,5.3h-6.9c-0.6,0-1.1-0.5-1.1-1.1v0c0-0.8-0.6-1.4-1.4-1.4H21c-0.8,0-1.4,0.6-1.4,1.4v0
		c0,0.6-0.5,1.1-1.1,1.1h-6.9c-1,0-1.9,0.8-1.9,1.9s0.8,1.9,1.9,1.9h26.9c1,0,1.9-0.8,1.9-1.9S39.5,5.3,38.5,5.3z"/>
</g>
</svg>
