<?xml version="1.0" encoding="utf-8"?>
<!-- Generator: Adobe Illustrator 19.0.0, SVG Export Plug-In . SVG Version: 6.00 Build 0)  -->
<svg version="1.1" id="Layer_1" xmlns="http://www.w3.org/2000/svg" xmlns:xlink="http://www.w3.org/1999/xlink" x="0px" y="0px"
	 viewBox="0 0 50 50" style="enable-background:new 0 0 50 50;" xml:space="preserve">
<style type="text/css">
	.st0{fill:#7D66FD;}
	.st1{fill:#FFFFFF;}
</style>
<circle id="XMLID_57_" class="st0" cx="24.9" cy="24.9" r="24.9"/>
<path id="XMLID_28_" class="st1" d="M35.8,21.6h-7.6V14c0-1.5-1.2-2.8-2.8-2.8h-1.1c-1.5,0-2.8,1.2-2.8,2.8v7.6h-7.6
	c-1.5,0-2.8,1.2-2.8,2.8v1.1c0,1.5,1.2,2.8,2.8,2.8h7.6v7.6c0,1.5,1.2,2.8,2.8,2.8h1.1c1.5,0,2.8-1.2,2.8-2.8v-7.6h7.6
	c1.5,0,2.8-1.2,2.8-2.8v-1.1C38.6,22.8,37.3,21.6,35.8,21.6z"/>
</svg>
