<?xml version="1.0" encoding="utf-8"?>
<!-- Generator: Adobe Illustrator 19.0.0, SVG Export Plug-In . SVG Version: 6.00 Build 0)  -->
<svg version="1.1" id="Layer_1" xmlns="http://www.w3.org/2000/svg" xmlns:xlink="http://www.w3.org/1999/xlink" x="0px" y="0px"
	 viewBox="-370 282 50 50" style="enable-background:new -370 282 50 50;" xml:space="preserve">
<style type="text/css">
	.st0{fill:#7D66FD;}
	.st1{fill:#FFFFFF;}
</style>
<circle id="XMLID_96_" class="st0" cx="-345" cy="307" r="25"/>
<path class="st1" d="M-332.5,310.9c-0.5,0-1,0.1-1.4,0.3l-2.5-4.2l2.7-4.4c0.5,0.3,1.1,0.4,1.8,0.4c2.2,0,4-1.8,4-4c0-2.2-1.8-4-4-4
	c-1.6,0-3,1-3.6,2.3l-5.4-2.1c0-0.1,0-0.3,0-0.4c0-2.2-1.8-4-4-4c-2.2,0-4,1.8-4,4c0,0.1,0,0.3,0,0.4l-5,2c-0.7-1.3-2-2.2-3.6-2.2
	c-2.2,0-4,1.8-4,4c0,2.2,1.8,4,4,4c0.5,0,1-0.1,1.4-0.3l2.5,4.2l-2.7,4.4c-0.5-0.3-1.1-0.4-1.8-0.4c-2.2,0-4,1.8-4,4
	c0,2.2,1.8,4,4,4c1.6,0,3-1,3.6-2.3l5.4,2.1c0,0.1,0,0.3,0,0.4c0,2.2,1.8,4,4,4c2.2,0,4-1.8,4-4c0-0.1,0-0.3,0-0.4l5-2
	c0.7,1.3,2,2.2,3.6,2.2c2.2,0,4-1.8,4-4C-328.4,312.7-330.2,310.9-332.5,310.9z M-335.2,312c-0.2,0.2-0.4,0.4-0.6,0.7l-2.9-2
	l1.3-2.2L-335.2,312z M-341.4,305.3l1.5-1.1l1.7,2.8l-1.7,2.8l-1.5-1.1c0.2-0.5,0.4-1.1,0.4-1.7C-341,306.4-341.1,305.8-341.4,305.3
	z M-338.6,303.4l3.2-2.3c0.1,0.2,0.3,0.4,0.5,0.6l-2.3,3.8L-338.6,303.4z M-336,298.8c0,0.1,0,0.1,0,0.2c0,0.2,0,0.4,0.1,0.6
	l-3.5,2.4l-2.7-4.4c0.3-0.3,0.5-0.6,0.7-1L-336,298.8z M-343.3,298.5l2.7,4.4l-1.6,1.1c-0.7-0.7-1.7-1.1-2.7-1.1
	c-1.1,0-2,0.4-2.7,1.1l-1.6-1.1l2.7-4.4c0.5,0.2,1.1,0.4,1.7,0.4C-344.4,298.9-343.8,298.7-343.3,298.5z M-348.6,308.7l-1.5,1.1
	l-1.7-2.8l1.7-2.8l1.5,1.1c-0.2,0.5-0.4,1.1-0.4,1.7C-349,307.6-348.9,308.2-348.6,308.7z M-348.6,296.7c0.2,0.3,0.4,0.7,0.7,0.9
	l-2.7,4.4l-3.1-2.2c0.1-0.3,0.1-0.6,0.1-0.9c0-0.1,0-0.3,0-0.4L-348.6,296.7z M-354.8,302c0.2-0.2,0.4-0.4,0.6-0.7l2.9,2l-1.3,2.2
	L-354.8,302z M-351.4,310.6l-3.2,2.3c-0.1-0.2-0.3-0.4-0.5-0.6l2.3-3.8L-351.4,310.6z M-354,315.2c0-0.1,0-0.1,0-0.2
	c0-0.2,0-0.4-0.1-0.6l3.5-2.5l2.7,4.4c-0.3,0.3-0.5,0.6-0.7,1L-354,315.2z M-346.7,315.5l-2.7-4.4l1.6-1.1c0.7,0.7,1.7,1.1,2.7,1.1
	c1.1,0,2-0.4,2.7-1.1l1.6,1.1l-2.7,4.4c-0.5-0.2-1.1-0.4-1.7-0.4C-345.6,315.1-346.1,315.3-346.7,315.5z M-341.4,317.3
	c-0.2-0.3-0.4-0.7-0.7-0.9l2.7-4.4l3.1,2.2c-0.1,0.3-0.1,0.6-0.1,0.9c0,0.1,0,0.3,0,0.4L-341.4,317.3z"/>
</svg>
