<?xml version="1.0" encoding="utf-8"?>
<!-- Generator: Adobe Illustrator 19.0.0, SVG Export Plug-In . SVG Version: 6.00 Build 0)  -->
<svg version="1.1" id="Layer_1" xmlns="http://www.w3.org/2000/svg" xmlns:xlink="http://www.w3.org/1999/xlink" x="0px" y="0px"
	 viewBox="0 0 50 50" style="enable-background:new 0 0 50 50;" xml:space="preserve">
<style type="text/css">
	.st0{fill:#7D66FD;}
	.st1{fill:#FFFFFF;}
</style>
<circle id="XMLID_96_" class="st0" cx="25" cy="25" r="25"/>
<path id="XMLID_163_" class="st1" d="M37.4,15.5l-0.7-1.1c-1.5-2.4-4.4-3.9-7.5-3.9h-8.5c-3.1,0-5.9,1.5-7.5,3.9l-0.7,1.1
	c-3.7,5.8-3.7,13.2,0,18.9l0.7,1.1c1.5,2.4,4.4,3.9,7.5,3.9h8.5c3.1,0,5.9-1.5,7.5-3.9l0.7-1.1C41.1,28.7,41.1,21.3,37.4,15.5z
	 M20,25.7c0,0.8-0.8,1.4-1.7,1.4c-1,0-1.7-0.6-1.7-1.4v-7.1c0-0.8,0.8-1.4,1.7-1.4c1,0,1.7,0.6,1.7,1.4V25.7z M27.8,33.4
	c0,0.6-0.5,1.1-1.1,1.1h-3.4c-0.6,0-1.1-0.5-1.1-1.1V32c0-1.5,1.2-2.8,2.8-2.8s2.8,1.2,2.8,2.8V33.4z M33.4,25.7
	c0,0.8-0.8,1.4-1.7,1.4c-1,0-1.7-0.6-1.7-1.4v-7.1c0-0.8,0.8-1.4,1.7-1.4c1,0,1.7,0.6,1.7,1.4V25.7z"/>
</svg>
