<?xml version="1.0" encoding="utf-8"?>
<!-- Generator: Adobe Illustrator 19.0.0, SVG Export Plug-In . SVG Version: 6.00 Build 0)  -->
<svg version="1.1" id="Layer_1" xmlns="http://www.w3.org/2000/svg" xmlns:xlink="http://www.w3.org/1999/xlink" x="0px" y="0px"
	 viewBox="0 0 50 50" style="enable-background:new 0 0 50 50;" xml:space="preserve">
<style type="text/css">
	.st0{fill:#7D66FD;}
	.st1{fill:#FFFFFF;}
</style>
<circle id="XMLID_108_" class="st0" cx="25" cy="25" r="25"/>
<path id="XMLID_71_" class="st1" d="M32.2,14.1l3.7-3.7c0.4-0.4,0.2-1-0.3-1.2c-2.5-0.7-5.3-0.1-7.2,1.9c-1.7,1.7-2.4,3.9-2.1,6.1
	c0.2,1.6-0.4,3.2-1.5,4.3l-3.1,3.1c-1.1,1.1-2.7,1.7-4.3,1.5c-2.2-0.3-4.5,0.4-6.1,2.1c-2,2-2.6,4.7-1.9,7.2
	c0.1,0.5,0.8,0.7,1.2,0.3l3.7-3.7c0.2-0.2,0.6-0.2,0.8,0l2.9,2.9c0.2,0.2,0.2,0.6,0,0.8l-3.7,3.7c-0.4,0.4-0.2,1,0.3,1.2
	c2.5,0.7,5.3,0.1,7.2-1.9c1.7-1.7,2.4-3.9,2.1-6.1c-0.2-1.6,0.4-3.2,1.5-4.3l3.1-3.1c1.1-1.1,2.7-1.7,4.3-1.5
	c2.2,0.3,4.5-0.4,6.1-2.1c2-2,2.6-4.7,1.9-7.2c-0.1-0.5-0.8-0.7-1.2-0.3l-3.7,3.7c-0.2,0.2-0.6,0.2-0.8,0L32.2,15
	C31.9,14.7,31.9,14.4,32.2,14.1z"/>
</svg>
