<?xml version="1.0" encoding="utf-8"?>
<!-- Generator: Adobe Illustrator 19.0.0, SVG Export Plug-In . SVG Version: 6.00 Build 0)  -->
<svg version="1.1" id="Layer_1" xmlns="http://www.w3.org/2000/svg" xmlns:xlink="http://www.w3.org/1999/xlink" x="0px" y="0px"
	 viewBox="0 0 50 50" style="enable-background:new 0 0 50 50;" xml:space="preserve">
<style type="text/css">
	.st0{fill:#7D66FD;}
	.st1{fill:#FFFFFF;}
</style>
<g id="XMLID_1_">
	<circle id="XMLID_67_" class="st0" cx="25" cy="25" r="25"/>
	<path id="XMLID_866_" class="st1" d="M19.2,40.2l16.6-17.2c0.4-0.4,0.1-1-0.4-1h-7.2c-0.4,0-0.7-0.5-0.5-0.9l4.9-8.5
		c0.2-0.4-0.1-0.9-0.5-0.9H21.6c-0.2,0-0.4,0.1-0.5,0.4l-6.4,15.6c-0.2,0.4,0.1,0.8,0.5,0.8h5.9c0.4,0,0.7,0.4,0.5,0.8l-3.5,10.4
		C18,40.2,18.8,40.6,19.2,40.2z"/>
</g>
</svg>
